<?xml version="1.0" encoding="utf-8"?>
<!-- Generator: Adobe Illustrator 16.0.4, SVG Export Plug-In . SVG Version: 6.00 Build 0)  -->
<!DOCTYPE svg PUBLIC "-//W3C//DTD SVG 1.1//EN" "http://www.w3.org/Graphics/SVG/1.1/DTD/svg11.dtd">
<svg version="1.1" id="Layer_1" xmlns="http://www.w3.org/2000/svg" xmlns:xlink="http://www.w3.org/1999/xlink" x="0px" y="0px"
	 width="196.188px" height="60.139px" viewBox="0 0 196.188 60.139" style="enable-background:new 0 0 196.188 60.139;"
	 xml:space="preserve">
<g>
	<rect x="-5.195" y="-1.47" style="display:none;opacity:0.94;fill:#FFFFFF;" width="67.298" height="62.345"/>
	<g>
		<path d="M50.021,8.671c-0.002,0.041,0.006,0.135,0.08,0.309c-0.032-0.095-0.057-0.198-0.072-0.308
			c0.252,0.049,0.494,0.021,0.494,0.021s0.065,1.176,1.514,0.981c1.449-0.195,0.954,0.844,1.473,0.844c0.52,0,2.143-0.584,0-2.533
			c-2.143-1.948-2.921-0.325-2.921-0.325c-1.105,0.114-1.105,0.325-1.105,0.325C49.413,8.443,49.722,8.612,50.021,8.671z"/>
		<path d="M38.363,5.211c0,0-0.309-0.129-0.504-0.129c-0.194,0-0.762,0.568-0.762,0.568c0.422-0.276,0.86-0.284,0.86-0.284
			C38.688,5.568,38.363,5.211,38.363,5.211z"/>
		<path d="M37.559,5.965c0,0,0,0,0.239,0.116c0.24,0.115,0.24,0,0.24,0c-0.008,0.065-0.138,0-0.138,0
			c0.082,0,0.054-0.225,0.04-0.311c0.097-0.017,0.163-0.016,0.163-0.016l-0.081-0.105c0,0-0.382,0.13-0.642,0.3
			c-0.259,0.171-0.365,0.074-0.365,0.074s0.149,0.163,0.455-0.058c0.035-0.024,0.07-0.046,0.105-0.065
			c0.021,0.016,0.062,0.047,0.111,0.08C37.611,5.963,37.559,5.965,37.559,5.965z"/>
		<path d="M38.274,7.297c0.137,0.162,0.665,0.219,0.698,0.219c0.032,0,0.356,0.235-0.049,0.178
			c-0.017-0.002-0.032-0.004-0.046-0.007c-0.33-0.055,0.014-0.107,0.014-0.107s-0.414,0.024-0.048,0.179
			c0.365,0.154,0.536-0.22,0.219-0.268c-0.317-0.049-0.861-0.155-0.747-0.325c0,0-0.016-0.073,0.187-0.292
			C38.501,6.875,38.135,7.135,38.274,7.297z"/>
		<polygon points="37.768,8.337 37.768,8.336 37.766,8.336 		"/>
		<path d="M33.982,6.406c0.005,0.054,0.01,0.109,0.014,0.169C33.996,6.575,33.994,6.505,33.982,6.406z"/>
		<path d="M33.982,6.406c-0.102-1.019-0.56-0.844-0.668-0.821c-0.114,0.023-0.171,0.259-0.113,0.884
			c0.059,0.625,0.308,0.559,0.308,0.559c-0.26-0.033-0.26-0.665-0.26-0.665s-0.211-0.763,0.26-0.714
			c0.236,0.024,0.358,0.258,0.42,0.483C33.957,6.231,33.973,6.329,33.982,6.406z"/>
		<path d="M33.589,6.875c-0.001,0-0.001,0-0.002,0C33.587,6.875,33.75,7.283,33.589,6.875z"/>
		<path d="M33.89,6.201c0,0-0.538,0.074-0.33,0.601c0.011,0.027,0.02,0.05,0.029,0.072C33.747,6.87,33.269,6.436,33.89,6.201z"/>
		<path d="M34.118,7.326c0,0,0.284,0.057,0.324,0.01c0.041-0.047-0.146-0.279-0.146-0.279s-0.033-0.288,0.024-0.36
			c0.056-0.073-0.276-0.13-0.325,0.097c0,0,0.251-0.235,0.251-0.089c0,0.146-0.081,0.431,0.106,0.543
			C34.54,7.362,34.118,7.326,34.118,7.326z"/>
		<path d="M33.701,7.89c0.664,0.446,1.074,0.097,0.96-0.049c-0.114-0.146,0-0.487,0-0.487c-0.122-0.024-0.105,0.397-0.105,0.443
			c0,0.045,0.073,0.409-0.625,0.141c-0.698-0.268-0.942-1.315-0.942-1.315S33.038,7.443,33.701,7.89z"/>
		<path d="M29.033,11.225c-0.146-0.04-0.23-0.055-0.23-0.055C28.881,11.187,28.956,11.207,29.033,11.225z"/>
		<path d="M50.733,9.724c0.097,0.098,0.176-0.007,0.197-0.039c0.021,0.011,0.042,0.024,0.063,0.039c0,0-0.021-0.022-0.057-0.048l0,0
			l0,0c-0.019-0.013-0.041-0.027-0.067-0.04c0,0,0-0.001,0-0.001h-0.002c-0.065-0.032-0.15-0.053-0.248-0.024
			c0,0,0.046-0.004,0.113,0.007c0,0-0.052,0.031-0.028,0.042c0.021,0.009,0.035,0.058,0.079,0.062
			C50.756,9.725,50.733,9.724,50.733,9.724z M50.883,9.663c0.014,0.006,0.028,0.011,0.042,0.019
			c-0.01,0.008-0.021,0.014-0.033,0.019C50.896,9.694,50.892,9.68,50.883,9.663z"/>
		<path d="M50.699,10.175c0,0,0.006,0.009,0.011,0.021C50.709,10.187,50.707,10.18,50.699,10.175z"/>
		<path d="M50.368,9.878c-0.239,0.179,0.012,0.463,0.102,0.406c0.089-0.057,0.15,0.028,0.15,0.028
			c0.109-0.034,0.104-0.088,0.091-0.117c0.005,0.044-0.077,0.123-0.091,0.089c-0.016-0.041-0.138-0.033-0.138-0.033
			c-0.081,0.073-0.288-0.167-0.154-0.3c0.134-0.134,0.154-0.334,0.154-0.334C50.278,9.338,50.165,9.131,50.1,8.98
			c0.127,0.385,0.349,0.637,0.349,0.637C50.463,9.682,50.368,9.878,50.368,9.878z"/>
		<path d="M50.58,10.589c0.008,0,0.016,0,0.024,0.001c0.027,0.003,0.048,0.014,0.065,0.027c-0.039-0.051-0.097-0.111-0.187-0.163
			l-0.029-0.003c0,0,0.004-0.134,0.017-0.167c0,0-0.033,0.134-0.045,0.15C50.413,10.451,50.449,10.593,50.58,10.589z"/>
		<path d="M50.62,10.609c-0.084,0-0.035,0.25,0,0.243c0.125-0.021,0.179-0.109,0.179-0.109s-0.056-0.078-0.12-0.115
			c-0.003-0.004-0.006-0.008-0.01-0.011c0.002,0.003,0.006,0.007,0.008,0.011C50.658,10.618,50.639,10.609,50.62,10.609z"/>
		<path d="M50.835,11.157c0.844,0.463,1.498-0.276,1.498-0.276c-0.726,0.678-1.356,0.305-1.435,0.293
			c-0.08-0.013-0.112-0.257-0.1-0.269c0.012-0.012-0.15-0.053-0.15-0.053l0.117,0.069C50.733,10.938,50.835,11.157,50.835,11.157z"
			/>
		<path d="M40.912,14.179c-0.163,1.445-3.896-1.818-3.896-1.818l1.949,2.208l3.554,2.1c-0.385,0.33-0.645,1.716-0.76,2.462
			c-0.57-0.652-0.562-0.06-0.562-0.06c0.184,0.037,0.358,0.148,0.525,0.312c-0.02,0.142-0.03,0.228-0.03,0.228
			c0.019-0.067,0.037-0.135,0.054-0.205c0.375,0.382,0.708,1.04,0.991,1.781c-0.261,0.213-0.32,0.272,0.024,0.066
			c0.12,0.32,0.23,0.653,0.332,0.986c-0.452,0.007-0.924,0.012-1.401,0.016c-0.823-5.494-2.727-7.687-2.727-7.687
			c1.18,2.164,1.833,4.722,2.232,7.69c-0.317,0.002-0.633,0.005-0.944,0.008c0.008-0.81,0.008-1.645-0.004-2.511
			c0,0-0.009,0.962-0.098,2.512c-0.218,0.002-0.434,0.005-0.645,0.007c0.143-2.437,0.065-4.12,0.065-4.12
			c0.027,1.465-0.013,2.836-0.109,4.121c-0.132,0.002-0.262,0.005-0.389,0.006c0.151-2.922-0.109-5.298-0.109-5.298
			c-0.039,2.007-0.167,3.765-0.364,5.309c-0.144,0.003-0.284,0.008-0.419,0.012c0.187-1.029,0.275-2.217,0.236-3.586
			c0,1.034-0.097,2.305-0.436,3.594c-0.377,0.015-0.715,0.034-0.998,0.059c0.338-1.065,0.593-2.38,0.722-3.998
			c-0.136,1.232-0.423,2.69-1.009,4.029c-0.094,0.012-0.175,0.025-0.249,0.039c-0.029-0.209-0.162-0.564-0.36-1.005
			c0.162-0.436,0.308-0.918,0.433-1.452c-0.133,0.447-0.294,0.891-0.492,1.319c-0.033-0.07-0.066-0.143-0.102-0.217
			c0.031,0.083,0.061,0.164,0.09,0.241c0.02,0.052,0.037,0.101,0.056,0.15c0.169,0.459,0.29,0.807,0.345,0.971
			c-0.149,0.03-0.259,0.065-0.311,0.106c0,0,0.123-0.007,0.341-0.016c0.002,0.009,0.005,0.016,0.005,0.016
			c0-0.005-0.001-0.012,0-0.016c0.055-0.002,0.119-0.006,0.187-0.008c0.089-0.004,0.189-0.008,0.297-0.012
			c0.278-0.011,0.615-0.024,0.999-0.037c0.071-0.002,0.141-0.005,0.215-0.007c0.137-0.004,0.28-0.009,0.428-0.013
			c0.157-0.005,0.32-0.009,0.487-0.014c0.125-0.003,0.253-0.007,0.384-0.01c0.016,0,0.032-0.001,0.047-0.001
			c0.21-0.005,0.425-0.01,0.646-0.014c0.036-0.001,0.073-0.001,0.109-0.002c0.314-0.006,0.638-0.011,0.965-0.014
			c0.165-0.002,0.329-0.003,0.495-0.004c0.475-0.003,0.954-0.003,1.43,0.001c0.147,0.001,0.294,0.003,0.44,0.006
			c1.16,0.017,2.272,0.059,3.175,0.145c0,0,0.071-0.067,0.195-0.181c0.534-0.49,2.054-1.855,3.199-2.603
			c-1.136,0.632-3.193,1.793-3.654,2.177c-0.223,0.186-1.451,0.253-2.989,0.284c-0.16-0.387-0.332-0.763-0.511-1.122
			c0.075-0.047,0.157-0.098,0.253-0.157c1.659-1.035,2.319-1.954,2.566-2.402l1.72,1.016l1.948-0.78l-3.321-1.827
			c0.542-0.371-0.278-0.471-0.872-0.479l-1.262-0.693c-0.227,0.435-0.441,0.91-0.5,1.241c0.126-0.734,0.847-1.996,0.847-1.996
			s-0.909-0.227-0.822,0c0.031,0.083-0.024,0.267-0.134,0.486l-1.728-0.95c0,0-0.649-3.377-2.727-4.611
			C38.964,9.958,41.074,12.735,40.912,14.179z M46.161,16.961l-0.828-0.456C46.32,16.7,46.233,16.894,46.161,16.961z M44.593,17.829
			c-0.483-0.047-1.059-0.182-1.084-0.556c-0.002-0.025,0-0.055,0.002-0.083L44.593,17.829z M43.511,17.188
			c0.001-0.032,0.004-0.064,0.008-0.1C43.515,17.124,43.511,17.158,43.511,17.188z M43.704,15.033
			c0.049-0.032,0.504,0.081,0.504,0.081c-0.292,0.228-0.52,1.443-0.795,2.061c-0.186,0.417,0.682,0.619,1.268,0.707l0.334,0.197
			l0.118,0.07l0.295,0.175l0.098,0.058l0.007,0.004l-0.161,0.23c-0.272,0.67-1.695,1.817-2.422,2.401
			c-0.187-0.367-0.382-0.714-0.581-1.03c-0.233-0.369-0.419-0.627-0.569-0.805c0.238-1.068,0.336-2.296,0.735-2.411
			c0.229-0.065,0.513-0.501,0.745-0.92c0.072-0.099,0.141-0.199,0.204-0.296l-0.037-0.02C43.587,15.26,43.687,15.045,43.704,15.033z
			"/>
		<path d="M28.802,19.013c-1.524-3.651-1.138-5.694-1.138-5.694s-1.104-0.178,0.52,4.838c1.549,4.786,2.65,3.892,2.749,3.799
			C30.857,22.023,30.228,22.427,28.802,19.013z"/>
		<path d="M30.936,21.952L30.936,21.952L30.936,21.952z"/>
		<path d="M30.94,21.949c0,0-0.001,0.001-0.004,0.003C30.939,21.95,30.94,21.949,30.94,21.949z"/>
		<path d="M30.936,21.953c0,0.001-0.002,0.002-0.004,0.004C30.934,21.955,30.935,21.954,30.936,21.953z"/>
		<path d="M29.119,22.081c1.649,1.625,2.506,0.842,2.506,0.842C30.395,22.986,29.119,22.081,29.119,22.081z"/>
		<path d="M29.119,23.111c2.104,1.423,2.831,0,2.831,0C30.392,23.95,29.119,23.111,29.119,23.111z"/>
		<path d="M29.612,24.092c1.948,0.714,2.921,0,2.921,0C31.478,24.354,29.612,24.092,29.612,24.092z"/>
		<path d="M54.032,10.628c-0.053-0.064-0.104-0.124-0.151-0.174C53.881,10.454,53.937,10.517,54.032,10.628z"/>
		<path d="M56.87,16.137c0.255-1.768-2.199-4.764-2.838-5.509c0.198,0.239,0.439,0.57,0.696,0.959
			c1.043,1.578,2.328,4.061,1.931,4.784c-0.519,0.948-4.87-1.37-4.87-1.37S56.578,18.166,56.87,16.137z"/>
		<path d="M54.971,19.771c-1.153-0.033-3.023-2.722-3.172-2.94c1.001,1.417,0.87,2,0.87,2c1.938,0.325,0.84,2.497,0.84,2.497
			C54.257,21.326,54.971,19.771,54.971,19.771z"/>
		<path d="M51.799,16.832c-0.004-0.005-0.007-0.01-0.011-0.016C51.789,16.816,51.793,16.822,51.799,16.832z"/>
		<path d="M52.194,15.492c-0.006-0.008-0.011-0.015-0.016-0.022C52.179,15.47,52.185,15.479,52.194,15.492z"/>
		<path d="M55.944,17.273c-0.671,2.478-3.524-1.464-3.75-1.781C55.977,20.927,55.944,17.273,55.944,17.273z"/>
		<path d="M50.993,16.922c0.384,5.278,1.936,4.557,1.936,4.557C51.613,20.894,50.993,16.922,50.993,16.922z"/>
		<path d="M53.379,14.569c0,0,4.124,1.444,1.208-0.934C54.588,13.635,56.886,15.631,53.379,14.569z"/>
		<path d="M55.445,22.369c-0.15,0.108-0.334,0.187-0.334,0.187C55.322,22.497,55.416,22.433,55.445,22.369z"/>
		<path d="M33.046,15.605c-0.152-1.526-0.943-3.651-4.014-4.38c0.757,0.208,3.163,1.108,3.801,4.245
			c0.109,0.534,0.166,1.133,0.155,1.804c0,0,0.125-0.59,0.078-1.409c0.572,0.974,2.059,3.539,2.859,5.224
			C35.249,19.29,34.042,16.385,33.046,15.605z"/>
		<path d="M30.334,32.73c-0.485-0.129-0.994-0.3-1.532-0.521C28.802,32.209,29.412,32.546,30.334,32.73z"/>
		<path d="M37.015,14.222c0.045,2.392-0.147,4.278-0.496,5.764C37.355,17.17,37.015,14.222,37.015,14.222z"/>
		<path d="M37.798,15.47c0.01,1.064-0.023,2.029-0.093,2.906C37.888,16.719,37.798,15.47,37.798,15.47z"/>
		<path d="M38.417,18.721c0-1.389-0.174-2.35-0.174-2.35C38.34,17.209,38.396,17.99,38.417,18.721z"/>
		<path d="M50.756,20.461c-0.479,0.36-1.824,1.466-0.45,1.575c0.193,0.015,0.408,0.027,0.637,0.035
			c0.12,0.005,0.243,0.008,0.368,0.012c1.673,0.041,3.8-0.047,3.8-0.047s0.413,0.162,0.334,0.333
			c0.063-0.045,0.119-0.096,0.153-0.147l0.001,0.001c0,0,0.557-0.642,0.345-3.15c0,0,0.089,2.899-0.693,2.796l0.001,0.001
			c-0.524-0.13-1.68-0.188-4.018-0.055c-0.155-0.597-0.284-1.52-0.322-2.952c-0.113-4.318,0.439-6.104,1.421-6.331
			c0.982-0.228,1.626-0.677,2.255-0.422c0.629,0.255-0.088-0.623-0.088-0.623s-0.727-0.174-1.581,0.226
			c-0.037-0.142-0.209-0.396-0.951-0.556c0,0,0.768,0.275,0.926,0.569c-0.735,0.353-1.56,1.133-2.096,2.819
			c0,0-0.085,2.763-0.063,4.886c-0.177,0.086-0.375,0.203-0.584,0.34c0.248-0.138,0.45-0.249,0.584-0.322
			C50.738,19.811,50.746,20.154,50.756,20.461z"/>
		<path d="M56.172,16.986c0,0,0.52,6.001-0.064,6.001c-0.585,0-1.52-0.432-1.52-0.432s-1.281,0.14-2.608,0.34l-0.011,0.001
			c0,0-0.008,0.002-0.022,0.003c-0.228,0.035-0.455,0.07-0.679,0.108c-1.076,0.18-2.031,0.39-2.174,0.586
			c-0.347,0.476-3.896,0.389-4.329,0.562c-0.058,0.023-0.256,0.064-0.557,0.116c-0.163,0.029-0.356,0.06-0.573,0.094
			c-0.465,0.072-1.041,0.156-1.674,0.243c-0.163,0.022-0.328,0.044-0.497,0.067c-0.412,0.055-0.838,0.109-1.271,0.162
			c-0.077,0.009-0.155,0.019-0.233,0.028c-0.228,0.027-0.457,0.055-0.684,0.08c-0.038,0.005-0.077,0.009-0.115,0.014
			c-0.118,0.013-0.236,0.026-0.353,0.039c-0.234,0.026-0.464,0.05-0.688,0.072c-0.302,0.03-0.594,0.057-0.871,0.081
			c-0.185,0.016-0.359,0.029-0.529,0.041c-0.508,0.037-0.944,0.056-1.262,0.05c-0.219-0.003-0.383-0.018-0.479-0.046
			c-0.059-0.017-0.126-0.054-0.201-0.106c-0.197-0.135-0.444-0.38-0.722-0.697c-0.096-0.109-0.196-0.229-0.297-0.353
			c-1.398-1.708-3.282-4.689-3.282-4.689c0.225,1.521,1.917,3.568,3.073,4.818c-1.006,0.595-2.294,0.927-3.939,0.839
			c0,0,2.25,0.893,4.271-0.489c0.349,0.365,0.614,0.622,0.715,0.719c-1.01,0.79-2.332,1.284-4.064,1.256c0,0,2.61,1.064,4.702-1.015
			c0.326,0.021,0.771,0.015,1.291-0.009c-1.291,1.771-3.425,3.151-6.915,3.361c0,0,5.017,0.924,7.48-3.393
			c0.305-0.02,0.627-0.044,0.96-0.072c-1.752,7.39-5.577,7.791-7.719,7.363c5.595,1.494,7.697-2.903,8.428-7.428
			c0.117-0.011,0.233-0.023,0.352-0.034c-1.519,9.494-6.354,13.263-8.48,14.489c-0.525-0.072-1.065-0.146-1.065-0.146
			s-2.684-1.948-4.762,0c0,0,0.754-16.823,1.699-24.382c0.029,0.145,0.055,0.226,0.055,0.226s0.024-0.122,0.071-0.325
			c0,0.001,2.487,7.55,2.171,9.479c-0.316,1.928-5.292,2.708-1.072,6.777c0,0-3.313,3.609-2.188,4.056c0,0,2.251-3.767,3.291-4.084
			c0,0-0.606-0.836-1.536-1.53c-0.929-0.692-0.542-1.731,0.36-2.65c0.901-0.919,1.462-2.263,1.462-2.263
			c0.484-3.34-2.487-9.783-2.488-9.784c0.14-0.612,0.481-1.964,0.968-2.987c0.649-1.364,0.779-0.455,3.052-1.753
			c2.273-1.299,2.337-3.767,2.337-3.767s-0.23-1.415,0.687-1.364c0.726,0.041,0.612,0.455,0.612,0.91s0.844,1.299,0.844,1.299
			s0.603,0.375-0.584,1.227s1.04,2.929,4.708,5.061c3.546,2.06-0.114-3.411-0.364-3.779c0.054-0.2,0.103-0.477-0.025-0.528
			c-0.203-0.081-0.032-0.753-0.032-0.753s-0.292-0.212-0.795-0.277l-0.271-0.081c0.018,0.054,0.088,0.131,0.335,0.162
			c0.398,0.048,0.682,0.172,0.682,0.195s-0.003,0.234-0.05,0.38c-0.047,0.146,0.058,0.431,0.123,0.431
			c0.046,0,0.047,0.241,0.02,0.449c-0.008-0.002-2.209-0.67-2.836-1.837c-0.385-0.717-0.52-1.494-0.52-1.494
			c1.582-2.401,2.268-1.575,3.103-1.866c0.083,0.217,0.178,0.485,0.168,0.551c-0.016,0.113-0.282,0.495-0.125,0.706
			c0.157,0.211,0.482,0.527,0.499,0.617c0.016,0.089,0.392,0.542,0.349,0.836s-0.153,0.484-0.446,0.39
			c-0.286-0.092-0.236,0.333-0.236,0.333s0.026,0.269-0.166,0.187c-0.192-0.081-0.902-0.097-0.902-0.097s-0.008,0.024,0.002,0.057
			c0.023,0.002,0.774,0.081,0.967,0.113c0.196,0.032,0.131-0.324,0.131-0.324s0.057-0.244,0.106-0.244
			c0.048,0,0.397,0.13,0.568-0.227c0.17-0.357-0.415-1.186-0.415-1.186S38.56,5.958,38.668,5.69
			c0.097-0.239,0.338-0.267-0.007-0.947c0.08-0.031,0.159-0.071,0.242-0.126c0.974-0.649-0.265-1.501-0.265-1.501
			c-1.039-1.753-4.871-1.039-4.871-1.039c-5.779,0.909-3.117,5.909-3.117,5.909c-0.443,0.289-0.837,0.58-1.195,0.872l-1.273-0.807
			c0,0,0-4.936-8.312-8.052c0,0,7.273,3.636,7.144,7.792L18.83,5.348c0.104-0.382,0.029-0.773-0.387-0.998
			c0,0-0.369-0.023-0.969,0.592L7.014,1.818l5.565,2.598L0,10.39v0.519c0,0,11.764-5.574,14.806-5.714
			c0.626-0.029,1.396,0.082,2.223,0.274c-0.279,0.375-0.59,0.875-0.924,1.544c-1.227,2.454-1.929-0.871-4.941,5.126
			c-2.939,1.111-6.375,3.219-8.437,7.212c0,0,3.181-4.022,7.871-6.032c-0.17,0.37-0.348,0.768-0.532,1.195c0,0,0.826,0.487,1.874,0
			c0,0-0.445,4.968-1.094,5.422c0,0,1.883-0.649,2.273,1.494c0.389,2.143,0.26,2.922,0.26,2.922l1.428,1.559h1.429
			c0,0,0.132-0.445-1.429-2.078c-1.562-1.633,0.65-8.702,0.65-8.702l1.018-3.088c1.522-0.674,7.38-3.194,9.631-3.082
			c2.064,0.103,2.406,0.534,2.459,0.707c-0.714,0.728-1.197,1.444-1.522,2.113c-0.49,0.452-1.575,2.433-2.236,11.069
			c-0.144,1.886-0.287,3.664-0.419,5.334c-0.838,0-4.982-0.099-10.88-1.95c-6.624-2.079-8.961,1.95-8.961,1.95
			s-8.182,2.856,0.779,22.987c0,0-3.497-16.342-0.909-20.65c0,0,0.129,7.663,5.325,12.079c0,0,0.129,3.377-1.689,5.195
			c0,0,1.559,3.247,2.857,7.403c0,0,1.26,0.779,1.929,1.948c0.668,1.169,2.487,1.559,2.487,1.559s-5.456-5.195-4.936-8.832
			c0.277-1.938,1.624-5.169,3.137-7.803c1.453,4.015,0.239,8.322,0.239,8.322c3.637,0.52,7.275,8.514,8.052,8.573
			c0.649,0.048,2.468-0.26,2.468-0.26c-4.286-3.117-7.792-8.702-7.792-8.702s-0.91-0.39,0-4.286
			c0.687-2.944,0.781-6.406,0.785-7.923c1.83-0.224,5.556,1.151,6.43,1.486c-0.027,2.404,0.127,4.139,0.577,5.138
			c0,0-0.39-5.455,4.871-4.806c0.974,1.494,0.455,4.741,0.455,4.741c-2.922,3.832-2.338,4.287-2.338,4.287
			c1.104,1.948,0,9.026,0,10.065s2.273,1.234,2.338,1.091c0.064-0.144,0.737-0.572,3.74-0.144c3.003,0.43,1.974-0.243,1.974-0.243
			c-0.389,0.314-1.234,0.334-1.974,0c-0.74-0.335-1.792-0.444-3.74-0.055c-1.948,0.389-2.338-1.429-1.888-1.429
			s0.589-8.247,0.07-9.352c-0.397-0.843,0.987-1.687,1.897-2.964c0.912,0.241,9.582,1.931,10.489-20.456
			c0.447-0.05,0.889-0.104,1.312-0.159c0.278,3.265,0.379,6.962,0.589,11.111c0.476,9.438-1.833,11.797-1.833,11.797
			c1.458-0.715,1.833-2.49,1.833-2.49c0.372-4.396,0.424-14.304-0.093-20.484c0.655-0.088,1.245-0.175,1.711-0.253
			c0.08,0.39,0.121,0.635,0.121,0.635s0.252,19.497,0.278,21.661c0.021,1.697-0.351,1.903-0.513,1.913
			c0.675,0.145,1.302,2.216,1.478,2.842c-0.283-1.613-0.403-13.002-0.446-19.86c0.123,0.019,0.251,0.009,0.365-0.047
			c0.519-0.26,0.882-1.026,1.651-1.299c0.794-0.281,0.383-1.039,0.383-1.039s-0.125-0.424-0.137-0.965
			c0.474-0.107,1.031-0.173,1.549-0.532c0.128,0.646,0.223,1.113,0.223,1.113s-0.942,1.834-1.604,2.365
			c-0.614,0.494-0.37,0.747-0.37,0.747s0.475,0.033,0.685-0.346c0.2-0.36,1.688-1.602,1.688-1.602s1.515,0,0.654-1.345
			c-0.367-0.573-0.461-1.583-0.449-2.554c0.065-0.241,0.122-0.49,0.171-0.735c0.303-0.789,0.915-1.797,2.131-2.381
			c0.152,0.062,0.339,0.057,0.572-0.062c1.104-0.568,3.75-0.552,4.042,1.234C56.464,26.203,57,26.803,57,26.803
			S56.854,22.609,56.172,16.986z M16.878,10.819l0.655-1.988c0,0-0.039-2.179,0.58-2.532c0.161-0.092,0.316-0.237,0.445-0.41
			c2.828,0.884,5.729,2.293,5.729,2.293L16.878,10.819z M30.584,39.787c-0.339,0.193-0.604,0.319-0.771,0.392
			c-0.099-0.25-0.18-0.429-0.219-0.513C29.99,39.715,30.317,39.754,30.584,39.787z M29.708,45.585
			c0.274-0.389,0.504-0.817,0.626-1.298c0.369-1.457-0.156-3.169-0.503-4.063c0.505-0.079,0.985-0.198,1.439-0.357
			c0.496,0.056,0.382,0.034,0.045-0.015c5.335-1.902,7.252-9.025,7.925-14.597c0.23-0.023,0.46-0.048,0.691-0.074
			C39.227,32.75,36.962,45.562,29.708,45.585z M45.47,30.045c0,0-0.228,0.825-0.857,1.103c-0.013-2.23-0.017-3.87-0.016-4.344
			c0.001-0.662-0.116-1.432-0.314-2.233c0.216-0.043,0.369-0.081,0.439-0.11c0.222-0.091,0.685-0.131,1.239-0.159
			C46.028,25.106,46.342,29.379,45.47,30.045z M49.577,24.754c0.017-0.114,0.032-0.222,0.045-0.323
			c-0.019,0.121-0.041,0.24-0.064,0.357c-0.003,0.005-0.006,0.011-0.009,0.017c0.033-0.181,0.064-0.359,0.091-0.524
			c-0.006,0.048-0.012,0.098-0.019,0.15c0.012-0.081,0.023-0.162,0.034-0.244c0.033-0.211,0.058-0.395,0.068-0.529
			c0.359-0.178,0.983-0.356,1.671-0.514c0.015,0.013,0.031,0.024,0.047,0.035C50.775,23.446,50.035,23.918,49.577,24.754z"/>
		<path d="M43.584,48.885c-0.025-0.005-0.049-0.009-0.074-0.009C43.511,48.876,43.54,48.888,43.584,48.885z"/>
		<path d="M45.062,51.728c0.016,0.09,0.032,0.153,0.049,0.18C45.111,51.907,45.093,51.84,45.062,51.728z"/>
		<path d="M43.482,25.153c0,0-0.099,18.161-0.328,18.161s0.364,6.753-1.167,6.104c-0.275-0.117-0.474-0.211-0.62-0.288
			c0.364,0.738,1.204,2.537,1.406,3.817C42.773,52.947,44.162,29.575,43.482,25.153z"/>
		<path d="M41.196,48.791c0,0-0.495-0.014,0.171,0.339C41.264,48.919,41.196,48.791,41.196,48.791z"/>
		<path d="M41.018,25.87c0,0-1.068,20.842-2.644,21.188C38.374,47.059,40.734,49.88,41.018,25.87z"/>
		<path d="M29.098,53.65c-0.583,0.249-0.982,0.417-0.982,0.417C28.404,53.99,28.74,53.841,29.098,53.65z"/>
		<path d="M32.885,50.955c0,0-2.129,1.81-3.787,2.695c1.292-0.554,3.491-1.508,4.254-1.922c1.108-0.599,5.491-3.11,5.507-13.579
			C38.86,38.148,37.197,50.175,32.885,50.955z"/>
		<path d="M38.949,58.867c0.352,0.034,0.731,0.063,1.081,0.075C39.882,58.816,39.472,58.823,38.949,58.867z"/>
		<path d="M43.507,58.704c-0.648-0.043-5.884-0.822-5.387-2.728c0.43-1.649,0.669-3.626,0.726-4.126
			c1.225-0.842,2.013-1.832,1.887-2.964c0,0-1.658,3.8-11.931,6.485c0,0,0.6-0.109,1.532-0.322l0,0c0,0-1.465,1.967,1.028,2.833
			c2.493,0.865,2.969,1.087,2.969,1.087s1.336-0.439,1.166,0c0,0,0.38-0.778-1.166-0.265c0,0-2.692-1.442-2.969-1.695
			c-0.272-0.247-0.981-0.196-0.837-2.006c1.32-0.308,3.213-0.811,5.013-1.501c0,0.002,0.568,2.469,0.568,3.425
			s-1.131,1.831,0.17,2.042c0.772,0.125,1.855-0.033,2.672-0.102c-0.728-0.071-1.342-0.163-1.342-0.163s-1.327,0.39-1.154-1.428
			c0.173-1.818-0.914-3.772-0.915-3.774c1.192-0.457,2.341-0.997,3.257-1.617c-0.329,0.796-1.779,4.423-1.188,5.042
			c0.665,0.695,3.74,1.229,3.701,1.777c-0.015,0.215-0.587,0.261-1.278,0.238c0.011,0.009,0.025,0.017,0.033,0.027
			c0.287,0.385,3.636,0.385,3.636,0.385l0.625-0.65C44.324,58.704,44.155,58.748,43.507,58.704z"/>
	</g>
</g>
<g>
	<rect x="66.577" y="11.933" style="fill:none;" width="125" height="44.667"/>
	<path d="M72.856,8.851c-0.922,0-1.754,0.041-2.496,0.123s-1.383,0.17-1.922,0.264c-0.625,0.117-1.184,0.246-1.676,0.387l0.34-1.898
		c0.094,0.008,0.234,0.016,0.422,0.023s0.396,0.016,0.627,0.023s0.473,0.014,0.727,0.018s0.494,0.008,0.721,0.012
		s0.428,0.008,0.604,0.012s0.303,0.006,0.381,0.006h6.691c0.078,0,0.205-0.002,0.381-0.006s0.377-0.008,0.604-0.012
		s0.467-0.008,0.721-0.012s0.496-0.01,0.727-0.018s0.439-0.016,0.627-0.023s0.328-0.016,0.422-0.023l0.34,1.898
		c-0.5-0.141-1.062-0.27-1.688-0.387c-0.539-0.094-1.18-0.182-1.922-0.264s-1.574-0.123-2.496-0.123v11.191
		c0,0.664,0.01,1.244,0.029,1.74s0.043,0.924,0.07,1.283s0.062,0.66,0.105,0.902s0.088,0.445,0.135,0.609v0.047h-2.801v-0.047
		c0.047-0.164,0.09-0.367,0.129-0.609s0.074-0.543,0.105-0.902s0.055-0.787,0.07-1.283s0.023-1.076,0.023-1.74V8.851z"/>
	<path d="M93.195,16.585c-0.312-0.008-0.703-0.014-1.172-0.018s-0.979-0.01-1.529-0.018s-1.125-0.014-1.723-0.018
		s-1.182-0.008-1.752-0.012s-1.113-0.002-1.629,0.006s-0.965,0.02-1.348,0.035v3.48c0,0.664,0.01,1.244,0.029,1.74
		s0.043,0.924,0.07,1.283s0.062,0.66,0.105,0.902s0.088,0.445,0.135,0.609v0.047H81.57v-0.047c0.047-0.164,0.092-0.367,0.135-0.609
		s0.08-0.543,0.111-0.902s0.055-0.787,0.07-1.283s0.023-1.076,0.023-1.74v-7.629c0-0.664-0.008-1.244-0.023-1.74
		s-0.039-0.926-0.07-1.289s-0.068-0.666-0.111-0.908s-0.088-0.445-0.135-0.609V7.82h2.812v0.047
		c-0.047,0.164-0.092,0.367-0.135,0.609s-0.078,0.545-0.105,0.908s-0.051,0.793-0.07,1.289s-0.029,1.076-0.029,1.74v3
		c0.406,0.016,0.867,0.025,1.383,0.029s1.055,0.004,1.617,0s1.135-0.01,1.717-0.018s1.145-0.018,1.688-0.029
		s1.051-0.025,1.523-0.041s0.881-0.031,1.225-0.047v-2.895c0-0.664-0.01-1.244-0.029-1.74s-0.043-0.926-0.07-1.289
		s-0.062-0.666-0.105-0.908s-0.088-0.445-0.135-0.609V7.82h2.812v0.047c-0.047,0.164-0.092,0.367-0.135,0.609
		s-0.08,0.545-0.111,0.908s-0.055,0.793-0.07,1.289s-0.023,1.076-0.023,1.74v7.629c0,0.664,0.008,1.244,0.023,1.74
		s0.039,0.924,0.07,1.283s0.068,0.66,0.111,0.902s0.088,0.445,0.135,0.609v0.047h-2.812v-0.047c0.047-0.164,0.092-0.367,0.135-0.609
		s0.078-0.543,0.105-0.902s0.051-0.787,0.07-1.283s0.029-1.076,0.029-1.74V16.585z"/>
	<path d="M100.732,7.808c0.965-0.008,1.85-0.018,2.654-0.029s1.492-0.029,2.062-0.053s0.957-0.055,1.16-0.094l-0.574,1.559
		c-0.258-0.07-0.559-0.133-0.902-0.188c-0.297-0.047-0.658-0.092-1.084-0.135s-0.916-0.064-1.471-0.064
		c-0.188,0-0.412,0.006-0.674,0.018s-0.514,0.025-0.756,0.041c-0.281,0.016-0.566,0.031-0.855,0.047v6.398
		c0.805-0.008,1.531-0.031,2.18-0.07s1.199-0.078,1.652-0.117c0.531-0.047,1-0.102,1.406-0.164l-0.363,1.699
		c-0.539-0.07-1.09-0.137-1.652-0.199c-0.484-0.055-1.012-0.104-1.582-0.146s-1.117-0.064-1.641-0.064v7.348
		c0.922,0,1.77-0.039,2.543-0.117s1.449-0.168,2.027-0.27c0.672-0.109,1.285-0.238,1.84-0.387l-0.34,1.898
		c-0.094-0.008-0.234-0.016-0.422-0.023s-0.396-0.016-0.627-0.023s-0.473-0.014-0.727-0.018s-0.494-0.008-0.721-0.012
		s-0.428-0.008-0.604-0.012s-0.303-0.006-0.381-0.006H97.82v-0.047c0.047-0.164,0.092-0.367,0.135-0.609s0.08-0.543,0.111-0.902
		s0.055-0.787,0.07-1.283s0.023-1.076,0.023-1.74v-7.629c0-0.664-0.008-1.244-0.023-1.74s-0.039-0.926-0.07-1.289
		s-0.068-0.666-0.111-0.908s-0.088-0.445-0.135-0.609V7.82C98.797,7.82,99.768,7.816,100.732,7.808z"/>
	<path d="M114.381,7.82c0.156,0.016,0.32,0.031,0.492,0.047c0.148,0.016,0.314,0.025,0.498,0.029s0.373,0.006,0.568,0.006
		c0.305,0,0.717-0.037,1.236-0.111s1.182-0.111,1.986-0.111c0.75,0,1.443,0.109,2.08,0.328s1.189,0.539,1.658,0.961
		s0.834,0.936,1.096,1.541s0.393,1.295,0.393,2.068c0,1.039-0.207,1.938-0.621,2.695s-0.969,1.371-1.664,1.84
		s-1.496,0.787-2.402,0.955s-1.855,0.178-2.848,0.029v1.945c0,0.664,0.01,1.244,0.029,1.74s0.043,0.924,0.07,1.283
		s0.062,0.66,0.105,0.902s0.088,0.445,0.135,0.609v0.047h-2.812v-0.047c0.047-0.164,0.092-0.367,0.135-0.609s0.08-0.543,0.111-0.902
		s0.055-0.787,0.07-1.283s0.023-1.076,0.023-1.74v-7.629c0-0.664-0.008-1.244-0.023-1.74s-0.039-0.926-0.07-1.289
		s-0.068-0.666-0.111-0.908s-0.088-0.445-0.135-0.609V7.82z M116.854,17.183c0.766,0.141,1.467,0.154,2.104,0.041
		s1.184-0.355,1.641-0.727s0.812-0.873,1.066-1.506s0.381-1.406,0.381-2.32c0-0.633-0.066-1.209-0.199-1.729
		s-0.33-0.961-0.592-1.324s-0.592-0.645-0.99-0.844s-0.863-0.299-1.395-0.299c-0.336,0-0.629,0.014-0.879,0.041
		s-0.461,0.057-0.633,0.088c-0.203,0.039-0.371,0.082-0.504,0.129V17.183z"/>
	<path d="M136.513,24.625v-0.047c0.016-0.039,0.027-0.098,0.035-0.176s0.012-0.148,0.012-0.211c0-0.242-0.033-0.51-0.1-0.803
		s-0.193-0.658-0.381-1.096l-1.418-3.188c-0.438-0.016-1.02-0.023-1.746-0.023s-1.512,0-2.355,0c-0.617,0-1.213,0-1.787,0
		s-1.092,0.008-1.553,0.023l-1.348,3.094c-0.117,0.289-0.242,0.605-0.375,0.949s-0.199,0.691-0.199,1.043
		c0,0.102,0.008,0.186,0.023,0.252s0.031,0.111,0.047,0.135v0.047h-2.391v-0.047c0.141-0.148,0.316-0.412,0.527-0.791
		s0.441-0.854,0.691-1.424l6.715-14.895h0.938l6.363,14.32c0.148,0.336,0.303,0.662,0.463,0.979s0.311,0.6,0.451,0.85
		s0.266,0.461,0.375,0.633s0.184,0.281,0.223,0.328v0.047H136.513z M128.919,18.074c0.453,0,0.918-0.002,1.395-0.006
		s0.943-0.008,1.4-0.012s0.896-0.008,1.318-0.012s0.805-0.01,1.148-0.018l-3.293-7.441l-3.234,7.488H128.919z"/>
	<path d="M140.07,24.578c0.047-0.164,0.09-0.367,0.129-0.609s0.074-0.543,0.105-0.902s0.055-0.787,0.07-1.283
		s0.023-1.076,0.023-1.74v-7.629c0-0.664-0.008-1.244-0.023-1.74s-0.039-0.926-0.07-1.289s-0.066-0.666-0.105-0.908
		s-0.082-0.445-0.129-0.609V7.82h2.801v0.047c-0.047,0.164-0.092,0.367-0.135,0.609s-0.078,0.545-0.105,0.908
		s-0.051,0.793-0.07,1.289s-0.029,1.076-0.029,1.74v7.629c0,0.664,0.01,1.244,0.029,1.74s0.043,0.924,0.07,1.283
		s0.062,0.66,0.105,0.902s0.088,0.445,0.135,0.609v0.047h-2.801V24.578z"/>
	<path d="M145.128,7.773c0.18,0.008,0.348,0.016,0.504,0.023c0.133,0.008,0.27,0.014,0.41,0.018s0.254,0.006,0.34,0.006
		c0.148,0,0.396-0.008,0.744-0.023s0.744-0.031,1.189-0.047s0.908-0.031,1.389-0.047s0.932-0.023,1.354-0.023
		c1.133,0,2.211,0.141,3.234,0.422s1.922,0.742,2.695,1.383s1.387,1.48,1.84,2.52s0.68,2.316,0.68,3.832
		c0,1.086-0.119,2.062-0.357,2.93s-0.572,1.633-1.002,2.297s-0.943,1.232-1.541,1.705s-1.258,0.861-1.98,1.166
		s-1.494,0.527-2.314,0.668s-1.668,0.211-2.543,0.211c-0.312,0-0.689-0.01-1.131-0.029s-0.885-0.041-1.33-0.064
		s-0.865-0.045-1.26-0.064s-0.701-0.029-0.92-0.029v-0.047c0.047-0.164,0.092-0.367,0.135-0.609s0.08-0.543,0.111-0.902
		s0.055-0.787,0.07-1.283s0.023-1.076,0.023-1.74v-7.629c0-0.664-0.008-1.248-0.023-1.752s-0.039-0.938-0.07-1.301
		s-0.068-0.67-0.111-0.92s-0.088-0.457-0.135-0.621V7.773z M147.694,8.828c-0.016,0.875-0.031,1.723-0.047,2.543
		c-0.008,0.352-0.014,0.711-0.018,1.078s-0.008,0.729-0.012,1.084s-0.008,0.695-0.012,1.02s-0.006,0.611-0.006,0.861
		c0,0.523,0.004,1.156,0.012,1.898s0.018,1.504,0.029,2.285s0.029,1.531,0.053,2.25s0.051,1.316,0.082,1.793
		c0.109,0.016,0.256,0.033,0.439,0.053s0.377,0.035,0.58,0.047s0.402,0.021,0.598,0.029s0.359,0.012,0.492,0.012
		c0.547,0,1.107-0.037,1.682-0.111s1.129-0.213,1.664-0.416s1.039-0.482,1.512-0.838s0.887-0.814,1.242-1.377
		s0.635-1.24,0.838-2.033s0.305-1.729,0.305-2.807c0-1.195-0.145-2.26-0.434-3.193s-0.713-1.721-1.271-2.361
		s-1.25-1.127-2.074-1.459s-1.771-0.498-2.842-0.498c-0.211,0-0.449,0.006-0.715,0.018s-0.529,0.023-0.791,0.035
		s-0.508,0.027-0.738,0.047S147.843,8.82,147.694,8.828z"/>
	<path d="M163.974,7.808c0.965-0.008,1.85-0.018,2.654-0.029s1.492-0.029,2.062-0.053s0.957-0.055,1.16-0.094l-0.574,1.559
		c-0.258-0.07-0.559-0.133-0.902-0.188c-0.297-0.047-0.658-0.092-1.084-0.135s-0.916-0.064-1.471-0.064
		c-0.188,0-0.412,0.006-0.674,0.018s-0.514,0.025-0.756,0.041c-0.281,0.016-0.566,0.031-0.855,0.047v6.398
		c0.805-0.008,1.531-0.031,2.18-0.07s1.199-0.078,1.652-0.117c0.531-0.047,1-0.102,1.406-0.164l-0.363,1.699
		c-0.539-0.07-1.09-0.137-1.652-0.199c-0.484-0.055-1.012-0.104-1.582-0.146s-1.117-0.064-1.641-0.064v7.348
		c0.922,0,1.77-0.039,2.543-0.117s1.449-0.168,2.027-0.27c0.672-0.109,1.285-0.238,1.84-0.387l-0.34,1.898
		c-0.094-0.008-0.234-0.016-0.422-0.023s-0.396-0.016-0.627-0.023s-0.473-0.014-0.727-0.018s-0.494-0.008-0.721-0.012
		s-0.428-0.008-0.604-0.012s-0.303-0.006-0.381-0.006h-5.062v-0.047c0.047-0.164,0.092-0.367,0.135-0.609s0.08-0.543,0.111-0.902
		s0.055-0.787,0.07-1.283s0.023-1.076,0.023-1.74v-7.629c0-0.664-0.008-1.244-0.023-1.74s-0.039-0.926-0.07-1.289
		s-0.068-0.666-0.111-0.908s-0.088-0.445-0.135-0.609V7.82C162.038,7.82,163.009,7.816,163.974,7.808z"/>
	<path d="M171.732,24.578c0.047-0.164,0.09-0.367,0.129-0.609s0.074-0.543,0.105-0.902s0.055-0.787,0.07-1.283
		s0.023-1.076,0.023-1.74v-7.629c0-0.664-0.008-1.244-0.023-1.74s-0.039-0.926-0.07-1.289s-0.066-0.666-0.105-0.908
		s-0.082-0.445-0.129-0.609V7.82h2.801v0.047c-0.047,0.164-0.092,0.367-0.135,0.609s-0.078,0.545-0.105,0.908
		s-0.051,0.793-0.07,1.289s-0.029,1.076-0.029,1.74v7.629c0,0.664,0.01,1.244,0.029,1.74s0.043,0.924,0.07,1.283
		s0.062,0.66,0.105,0.902s0.088,0.445,0.135,0.609v0.047h-2.801V24.578z"/>
	<path d="M188.415,24.625v-0.047c0.016-0.039,0.027-0.098,0.035-0.176s0.012-0.148,0.012-0.211c0-0.242-0.033-0.51-0.1-0.803
		s-0.193-0.658-0.381-1.096l-1.418-3.188c-0.438-0.016-1.02-0.023-1.746-0.023s-1.512,0-2.355,0c-0.617,0-1.213,0-1.787,0
		s-1.092,0.008-1.553,0.023l-1.348,3.094c-0.117,0.289-0.242,0.605-0.375,0.949s-0.199,0.691-0.199,1.043
		c0,0.102,0.008,0.186,0.023,0.252s0.031,0.111,0.047,0.135v0.047h-2.391v-0.047c0.141-0.148,0.316-0.412,0.527-0.791
		s0.441-0.854,0.691-1.424l6.715-14.895h0.938l6.363,14.32c0.148,0.336,0.303,0.662,0.463,0.979s0.311,0.6,0.451,0.85
		s0.266,0.461,0.375,0.633s0.184,0.281,0.223,0.328v0.047H188.415z M180.821,18.074c0.453,0,0.918-0.002,1.395-0.006
		s0.943-0.008,1.4-0.012s0.896-0.008,1.318-0.012s0.805-0.01,1.148-0.018l-3.293-7.441l-3.234,7.488H180.821z"/>
	<path d="M79.068,53.377c0.047-0.164,0.09-0.367,0.129-0.609s0.074-0.543,0.105-0.902s0.055-0.787,0.07-1.283
		s0.023-1.076,0.023-1.74v-7.629c0-0.664-0.008-1.244-0.023-1.74s-0.039-0.926-0.07-1.289s-0.066-0.666-0.105-0.908
		s-0.082-0.445-0.129-0.609V36.62h2.801v0.047c-0.047,0.164-0.092,0.367-0.135,0.609s-0.078,0.545-0.105,0.908
		s-0.051,0.793-0.07,1.289s-0.029,1.076-0.029,1.74v7.629c0,0.664,0.01,1.244,0.029,1.74s0.043,0.924,0.07,1.283
		s0.062,0.66,0.105,0.902s0.088,0.445,0.135,0.609v0.047h-2.801V53.377z"/>
	<path d="M84.782,36.62l12.07,12.844v-8.25c0-0.664-0.008-1.244-0.023-1.74s-0.039-0.926-0.07-1.289s-0.068-0.666-0.111-0.908
		s-0.088-0.445-0.135-0.609V36.62h2.086v0.047c-0.047,0.164-0.09,0.367-0.129,0.609s-0.074,0.545-0.105,0.908
		s-0.055,0.793-0.07,1.289s-0.023,1.076-0.023,1.74v12.445h-0.41L85.79,40.827v8.016c0,0.664,0.008,1.244,0.023,1.74
		s0.039,0.924,0.07,1.283s0.066,0.66,0.105,0.902s0.082,0.445,0.129,0.609v0.047h-2.086v-0.047c0.047-0.164,0.092-0.367,0.135-0.609
		s0.08-0.543,0.111-0.902s0.055-0.787,0.07-1.283s0.023-1.076,0.023-1.74v-7.629c0-0.664-0.008-1.244-0.023-1.74
		s-0.039-0.926-0.07-1.289s-0.068-0.666-0.111-0.908s-0.088-0.445-0.135-0.609V36.62H84.782z"/>
	<path d="M107.664,39.292h-0.258c-0.062-0.18-0.162-0.383-0.299-0.609s-0.316-0.439-0.539-0.639s-0.492-0.365-0.809-0.498
		s-0.689-0.199-1.119-0.199c-0.383,0-0.723,0.059-1.02,0.176s-0.545,0.281-0.744,0.492s-0.35,0.461-0.451,0.75
		s-0.152,0.609-0.152,0.961c0,0.562,0.158,1.1,0.475,1.611s0.713,1.018,1.189,1.518s0.992,1,1.547,1.5s1.07,1.02,1.547,1.559
		s0.873,1.104,1.189,1.693s0.475,1.225,0.475,1.904c0,0.508-0.088,1.018-0.264,1.529s-0.447,0.971-0.814,1.377
		s-0.84,0.736-1.418,0.99s-1.266,0.381-2.062,0.381c-0.445,0-0.869-0.041-1.271-0.123s-0.773-0.184-1.113-0.305
		s-0.645-0.252-0.914-0.393s-0.49-0.27-0.662-0.387l0.27-2.59h0.293c0.086,0.367,0.227,0.717,0.422,1.049s0.436,0.625,0.721,0.879
		s0.611,0.457,0.979,0.609s0.77,0.229,1.207,0.229c0.398,0,0.756-0.061,1.072-0.182s0.588-0.289,0.814-0.504s0.4-0.471,0.521-0.768
		s0.182-0.621,0.182-0.973c0-0.492-0.09-0.947-0.27-1.365s-0.416-0.814-0.709-1.189s-0.625-0.738-0.996-1.09
		s-0.752-0.705-1.143-1.061s-0.771-0.721-1.143-1.096s-0.703-0.775-0.996-1.201s-0.529-0.883-0.709-1.371s-0.27-1.025-0.27-1.611
		c0-0.617,0.119-1.174,0.357-1.67s0.555-0.92,0.949-1.271s0.842-0.621,1.342-0.809s1.016-0.281,1.547-0.281
		c0.391,0,0.75,0.031,1.078,0.094s0.623,0.137,0.885,0.223s0.49,0.172,0.686,0.258s0.355,0.156,0.48,0.211L107.664,39.292z"/>
	<path d="M114.797,37.651c-0.922,0-1.754,0.041-2.496,0.123s-1.383,0.17-1.922,0.264c-0.625,0.117-1.184,0.246-1.676,0.387
		l0.34-1.898c0.094,0.008,0.234,0.016,0.422,0.023s0.396,0.016,0.627,0.023s0.473,0.014,0.727,0.018s0.494,0.008,0.721,0.012
		s0.428,0.008,0.604,0.012s0.303,0.006,0.381,0.006h6.691c0.078,0,0.205-0.002,0.381-0.006s0.377-0.008,0.604-0.012
		s0.467-0.008,0.721-0.012s0.496-0.01,0.727-0.018s0.439-0.016,0.627-0.023s0.328-0.016,0.422-0.023l0.34,1.898
		c-0.5-0.141-1.062-0.27-1.688-0.387c-0.539-0.094-1.18-0.182-1.922-0.264s-1.574-0.123-2.496-0.123v11.191
		c0,0.664,0.01,1.244,0.029,1.74s0.043,0.924,0.07,1.283s0.062,0.66,0.105,0.902s0.088,0.445,0.135,0.609v0.047h-2.801v-0.047
		c0.047-0.164,0.09-0.367,0.129-0.609s0.074-0.543,0.105-0.902s0.055-0.787,0.07-1.283s0.023-1.076,0.023-1.74V37.651z"/>
	<path d="M123.616,53.377c0.047-0.164,0.09-0.367,0.129-0.609s0.074-0.543,0.105-0.902s0.055-0.787,0.07-1.283
		s0.023-1.076,0.023-1.74v-7.629c0-0.664-0.008-1.244-0.023-1.74s-0.039-0.926-0.07-1.289s-0.066-0.666-0.105-0.908
		s-0.082-0.445-0.129-0.609V36.62h2.801v0.047c-0.047,0.164-0.092,0.367-0.135,0.609s-0.078,0.545-0.105,0.908
		s-0.051,0.793-0.07,1.289s-0.029,1.076-0.029,1.74v7.629c0,0.664,0.01,1.244,0.029,1.74s0.043,0.924,0.07,1.283
		s0.062,0.66,0.105,0.902s0.088,0.445,0.135,0.609v0.047h-2.801V53.377z"/>
	<path d="M133.092,37.651c-0.922,0-1.754,0.041-2.496,0.123s-1.383,0.17-1.922,0.264c-0.625,0.117-1.184,0.246-1.676,0.387
		l0.34-1.898c0.094,0.008,0.234,0.016,0.422,0.023s0.396,0.016,0.627,0.023s0.473,0.014,0.727,0.018s0.494,0.008,0.721,0.012
		s0.428,0.008,0.604,0.012s0.303,0.006,0.381,0.006h6.691c0.078,0,0.205-0.002,0.381-0.006s0.377-0.008,0.604-0.012
		s0.467-0.008,0.721-0.012s0.496-0.01,0.727-0.018s0.439-0.016,0.627-0.023s0.328-0.016,0.422-0.023l0.34,1.898
		c-0.5-0.141-1.062-0.27-1.688-0.387c-0.539-0.094-1.18-0.182-1.922-0.264s-1.574-0.123-2.496-0.123v11.191
		c0,0.664,0.01,1.244,0.029,1.74s0.043,0.924,0.07,1.283s0.062,0.66,0.105,0.902s0.088,0.445,0.135,0.609v0.047h-2.801v-0.047
		c0.047-0.164,0.09-0.367,0.129-0.609s0.074-0.543,0.105-0.902s0.055-0.787,0.07-1.283s0.023-1.076,0.023-1.74V37.651z"/>
	<path d="M153.829,41.213c0-0.664-0.008-1.244-0.023-1.74s-0.039-0.926-0.07-1.289s-0.066-0.666-0.105-0.908
		s-0.082-0.445-0.129-0.609V36.62h2.086v0.047c-0.047,0.164-0.092,0.367-0.135,0.609s-0.078,0.545-0.105,0.908
		s-0.051,0.793-0.07,1.289s-0.029,1.076-0.029,1.74v6.328c0,1.117-0.16,2.07-0.48,2.859s-0.766,1.436-1.336,1.939
		s-1.254,0.871-2.051,1.102s-1.668,0.346-2.613,0.346s-1.826-0.109-2.643-0.328s-1.527-0.572-2.133-1.061s-1.08-1.121-1.424-1.898
		s-0.516-1.725-0.516-2.842v-6.445c0-0.664-0.008-1.244-0.023-1.74s-0.039-0.926-0.07-1.289s-0.068-0.666-0.111-0.908
		s-0.088-0.445-0.135-0.609V36.62h2.812v0.047c-0.047,0.164-0.092,0.367-0.135,0.609s-0.08,0.545-0.111,0.908
		s-0.055,0.793-0.07,1.289s-0.023,1.076-0.023,1.74v6.574c0,0.93,0.139,1.697,0.416,2.303s0.643,1.086,1.096,1.441
		s0.969,0.604,1.547,0.744s1.168,0.211,1.77,0.211s1.191-0.07,1.77-0.211s1.092-0.389,1.541-0.744s0.812-0.836,1.09-1.441
		s0.416-1.373,0.416-2.303V41.213z"/>
	<path d="M162.062,37.651c-0.922,0-1.754,0.041-2.496,0.123s-1.383,0.17-1.922,0.264c-0.625,0.117-1.184,0.246-1.676,0.387
		l0.34-1.898c0.094,0.008,0.234,0.016,0.422,0.023s0.396,0.016,0.627,0.023s0.473,0.014,0.727,0.018s0.494,0.008,0.721,0.012
		s0.428,0.008,0.604,0.012s0.303,0.006,0.381,0.006h6.691c0.078,0,0.205-0.002,0.381-0.006s0.377-0.008,0.604-0.012
		s0.467-0.008,0.721-0.012s0.496-0.01,0.727-0.018s0.439-0.016,0.627-0.023s0.328-0.016,0.422-0.023l0.34,1.898
		c-0.5-0.141-1.062-0.27-1.688-0.387c-0.539-0.094-1.18-0.182-1.922-0.264s-1.574-0.123-2.496-0.123v11.191
		c0,0.664,0.01,1.244,0.029,1.74s0.043,0.924,0.07,1.283s0.062,0.66,0.105,0.902s0.088,0.445,0.135,0.609v0.047h-2.801v-0.047
		c0.047-0.164,0.09-0.367,0.129-0.609s0.074-0.543,0.105-0.902s0.055-0.787,0.07-1.283s0.023-1.076,0.023-1.74V37.651z"/>
	<path d="M173.689,36.608c0.965-0.008,1.85-0.018,2.654-0.029s1.492-0.029,2.062-0.053s0.957-0.055,1.16-0.094l-0.574,1.559
		c-0.258-0.07-0.559-0.133-0.902-0.188c-0.297-0.047-0.658-0.092-1.084-0.135s-0.916-0.064-1.471-0.064
		c-0.188,0-0.412,0.006-0.674,0.018s-0.514,0.025-0.756,0.041c-0.281,0.016-0.566,0.031-0.855,0.047v6.398
		c0.805-0.008,1.531-0.031,2.18-0.07s1.199-0.078,1.652-0.117c0.531-0.047,1-0.102,1.406-0.164l-0.363,1.699
		c-0.539-0.07-1.09-0.137-1.652-0.199c-0.484-0.055-1.012-0.104-1.582-0.146s-1.117-0.064-1.641-0.064v7.348
		c0.922,0,1.77-0.039,2.543-0.117s1.449-0.168,2.027-0.27c0.672-0.109,1.285-0.238,1.84-0.387l-0.34,1.898
		c-0.094-0.008-0.234-0.016-0.422-0.023s-0.396-0.016-0.627-0.023s-0.473-0.014-0.727-0.018s-0.494-0.008-0.721-0.012
		s-0.428-0.008-0.604-0.012s-0.303-0.006-0.381-0.006h-5.062v-0.047c0.047-0.164,0.092-0.367,0.135-0.609s0.08-0.543,0.111-0.902
		s0.055-0.787,0.07-1.283s0.023-1.076,0.023-1.74v-7.629c0-0.664-0.008-1.244-0.023-1.74s-0.039-0.926-0.07-1.289
		s-0.068-0.666-0.111-0.908s-0.088-0.445-0.135-0.609V36.62C171.754,36.62,172.725,36.616,173.689,36.608z"/>
</g>
<g>
</g>
<g>
</g>
<g>
</g>
<g>
</g>
<g>
</g>
<g>
</g>
</svg>
